<?xml version="1.0" encoding="UTF-8"?>
<svg version="1.1" xmlns="http://www.w3.org/2000/svg" width="48" height="48">
<path d="M0 0 C1.32 0.33 2.64 0.66 4 1 C4 2.98 4 4.96 4 7 C4.33 5.68 4.66 4.36 5 3 C6.32 3.33 7.64 3.66 9 4 C9.495 6.475 9.495 6.475 10 9 C10.99 9.33 11.98 9.66 13 10 C12.21681311 13.91593446 10.60820142 17.36406635 9 21 C8.01 20.67 7.02 20.34 6 20 C6 18.02 6 16.04 6 14 C4.35 14.66 2.7 15.32 1 16 C1.66 16.66 2.32 17.32 3 18 C3.25 21.5 3.25 21.5 3 25 C2.34 25.66 1.68 26.32 1 27 C0.01 27 -0.98 27 -2 27 C-1.95875 27.94875 -1.9175 28.8975 -1.875 29.875 C-2 33 -2 33 -4 35 C-8.13997567 35.1971417 -11.07703567 35.30765478 -15 34 C-17.33512959 34.32050798 -19.66822025 34.65596692 -22 35 C-24.72303478 35.17694811 -27.26020935 35.13931139 -30 35 C-32 33 -32 33 -32.1953125 31.0546875 C-32.13020833 29.03645833 -32.06510417 27.01822917 -32 25 C-30.68 24.34 -29.36 23.68 -28 23 C-28.04125 21.88625 -28.0825 20.7725 -28.125 19.625 C-28 16 -28 16 -26 14 C-25.01 14 -24.02 14 -23 14 C-22.87625 13.2575 -22.7525 12.515 -22.625 11.75 C-22.04513299 9.19858515 -21.26291261 7.2732427 -20 5 C-13.25 4.875 -13.25 4.875 -11 6 C-9.64655763 6.04428441 -8.2910961 6.03930588 -6.9375 6 C-5.638125 6 -4.33875 6 -3 6 C-2.67 6.33 -2.34 6.66 -2 7 C-1.34 4.69 -0.68 2.38 0 0 Z M-1 9 C-1 9.66 -1 10.32 -1 11 C-0.34 10.67 0.32 10.34 1 10 C0.34 9.67 -0.32 9.34 -1 9 Z " fill="#8251FD" transform="translate(34,7)"/>
<path d="M0 0 C0.598125 0.20625 1.19625 0.4125 1.8125 0.625 C0.8225 2.935 -0.1675 5.245 -1.1875 7.625 C-2.8375 7.295 -4.4875 6.965 -6.1875 6.625 C-5.875 4.25 -5.875 4.25 -5.1875 1.625 C-2.1875 -0.375 -2.1875 -0.375 0 0 Z " fill="#9991FE" transform="translate(34.1875,23.375)"/>
<path d="M0 0 C1.65 0.33 3.3 0.66 5 1 C5 3.31 5 5.62 5 8 C4.34 8 3.68 8 3 8 C3 7.34 3 6.68 3 6 C1.68 5.67 0.36 5.34 -1 5 C-0.67 3.35 -0.34 1.7 0 0 Z " fill="#E2DDFF" transform="translate(15,32)"/>
<path d="M0 0 C1.98 0 3.96 0 6 0 C6.33 1.65 6.66 3.3 7 5 C5.35 5.33 3.7 5.66 2 6 C1.67 5.01 1.34 4.02 1 3 C0.34 3 -0.32 3 -1 3 C-0.67 2.01 -0.34 1.02 0 0 Z " fill="#B3ADFE" transform="translate(13,15)"/>
<path d="M0 0 C1.65 0.33 3.3 0.66 5 1 C4.67 2.65 4.34 4.3 4 6 C2.35 5.67 0.7 5.34 -1 5 C-0.67 3.35 -0.34 1.7 0 0 Z " fill="#CCC5FF" transform="translate(24,33)"/>
<path d="M0 0 C1.65 0.33 3.3 0.66 5 1 C4.67 2.65 4.34 4.3 4 6 C2.35 5.67 0.7 5.34 -1 5 C-0.67 3.35 -0.34 1.7 0 0 Z " fill="#ECE6FF" transform="translate(6,33)"/>
<path d="M0 0 C1.65 0.33 3.3 0.66 5 1 C4.67 2.65 4.34 4.3 4 6 C2.35 5.67 0.7 5.34 -1 5 C-0.67 3.35 -0.34 1.7 0 0 Z " fill="#D9D2FF" transform="translate(10,24)"/>
<path d="M0 0 C-0.33 1.65 -0.66 3.3 -1 5 C-2.65 4.67 -4.3 4.34 -6 4 C-6 2.68 -6 1.36 -6 0 C-3.50907189 -1.24546405 -2.58919267 -0.7767578 0 0 Z " fill="#BEB7FF" transform="translate(24,24)"/>
<path d="M0 0 C1.32 0.33 2.64 0.66 4 1 C4.33 2.32 4.66 3.64 5 5 C3.35 4.67 1.7 4.34 0 4 C0 2.68 0 1.36 0 0 Z " fill="#8F87FE" transform="translate(24,17)"/>
</svg>
